<?xml version="1.0" encoding="UTF-8"?> <svg xmlns="http://www.w3.org/2000/svg" xmlns:xlink="http://www.w3.org/1999/xlink" version="1.1" id="Слой_1" x="0px" y="0px" viewBox="0 0 720.73 184" style="enable-background:new 0 0 720.73 184;" xml:space="preserve"> <style type="text/css"> .st0{fill:#FFFFFF;} </style> <g> <g> <path class="st0" d="M211.48,107.66V45.64h9.45v48.22l31.98-48.22h8.86v62.02h-9.54V60.14l-31.56,47.52H211.48z"></path> <path class="st0" d="M324.89,45.64v62.02h-9.45V80.32h-30.21v27.34h-9.54V45.64h9.54v25.95h30.21V45.64H324.89z"></path> <path class="st0" d="M382.35,54.28h-19.91v53.37h-9.53V54.28h-20v-8.65h49.45V54.28z"></path> <path class="st0" d="M431.46,99.01v8.65h-41.09V45.64h40.33v8.65h-30.8v17.73h26.75v8.04H399.9v18.96H431.46z"></path> <path class="st0" d="M480.14,107.66V54.28h-20l-0.34,11.53c-0.28,8.33-0.91,15.21-1.9,20.66c-0.98,5.45-2.38,9.73-4.18,12.84 c-1.8,3.12-4.05,5.33-6.75,6.64c-2.7,1.31-5.94,1.96-9.7,1.96v-8.56c2.08,0,3.91-0.51,5.48-1.53c1.57-1.02,2.91-2.84,4.01-5.46 s1.97-6.29,2.62-11.01c0.65-4.72,1.08-10.8,1.31-18.26l0.59-17.47h38.39v62.02H480.14z"></path> <path class="st0" d="M542.08,107.66V54.28h-20l-0.34,11.53c-0.28,8.33-0.91,15.21-1.9,20.66c-0.98,5.45-2.38,9.73-4.18,12.84 c-1.8,3.12-4.05,5.33-6.75,6.64c-2.7,1.31-5.94,1.96-9.7,1.96v-8.56c2.08,0,3.91-0.51,5.48-1.53c1.57-1.02,2.91-2.84,4.01-5.46 c1.1-2.62,1.97-6.29,2.62-11.01c0.65-4.72,1.08-10.8,1.31-18.26l0.59-17.47h38.39v62.02H542.08z"></path> <path class="st0" d="M606.21,99.01v8.65h-41.09V45.64h40.33v8.65h-30.8v17.73h26.75v8.04h-26.75v18.96H606.21z"></path> <path class="st0" d="M616.08,107.66V45.64h9.45v25.95h7l18.9-25.95h10.63l-21.94,30.05l23.63,31.97h-11.56l-19.66-27.17h-7v27.17 H616.08z"></path> <path class="st0" d="M716.4,54.28h-19.91v53.37h-9.54V54.28h-20v-8.65h49.45V54.28z"></path> </g> <g> <path class="st0" d="M259.09,143.84v-16.42h-6.39v-1.56h14.49v1.56h-6.42v16.42H259.09z"></path> <path class="st0" d="M283.61,144.19c-1.23,0-2.36-0.24-3.4-0.72c-1.04-0.48-1.94-1.16-2.69-2.02c-0.76-0.86-1.35-1.85-1.77-2.97 c-0.42-1.12-0.64-2.29-0.64-3.54c0-1.29,0.21-2.49,0.64-3.61c0.42-1.12,1.02-2.1,1.79-2.97c0.77-0.86,1.67-1.54,2.71-2.04 c1.04-0.49,2.16-0.74,3.36-0.74s2.32,0.25,3.35,0.74c1.03,0.49,1.93,1.17,2.71,2.04c0.78,0.86,1.38,1.85,1.81,2.97 c0.42,1.12,0.64,2.32,0.64,3.61c0,1.24-0.21,2.42-0.64,3.54c-0.42,1.12-1.02,2.1-1.79,2.97c-0.77,0.86-1.67,1.54-2.71,2.02 C285.94,143.95,284.82,144.19,283.61,144.19z M276.79,134.94c0,1.43,0.31,2.72,0.92,3.88c0.61,1.16,1.43,2.09,2.46,2.78 c1.03,0.69,2.16,1.03,3.41,1.03c1.25,0,2.39-0.35,3.43-1.05c1.04-0.7,1.86-1.64,2.48-2.83c0.61-1.18,0.92-2.48,0.92-3.88 c0-1.4-0.31-2.69-0.92-3.86c-0.61-1.17-1.43-2.11-2.46-2.81c-1.03-0.7-2.16-1.05-3.41-1.05c-1.25,0-2.39,0.36-3.43,1.07 c-1.04,0.71-1.86,1.66-2.48,2.83C277.1,132.22,276.79,133.52,276.79,134.94z"></path> <path class="st0" d="M302.02,143.84v-17.98h13.55v17.98h-1.67v-16.42h-10.2v16.42H302.02z"></path> <path class="st0" d="M324.93,143.84v-1.59c0.6,0,1.15-0.18,1.64-0.53c0.49-0.36,0.92-0.96,1.3-1.81c0.38-0.85,0.69-2.03,0.92-3.53 c0.23-1.5,0.38-3.4,0.45-5.7l0.17-4.82h10.84v17.91h-1.67v-16.35h-7.66l-0.07,3.37c-0.09,2.52-0.27,4.63-0.55,6.32 c-0.28,1.69-0.66,3.02-1.15,3.99c-0.49,0.98-1.09,1.68-1.79,2.1C326.66,143.63,325.85,143.84,324.93,143.84z"></path> <path class="st0" d="M351.36,143.84V125.9h1.67v15.59l11.31-15.63h1.54v17.98h-1.67V128.5l-11.17,15.35H351.36z"></path> <path class="st0" d="M376.96,143.84v-17.98h8.4c0.94,0,1.72,0.21,2.36,0.64c0.64,0.43,1.13,0.98,1.47,1.66 c0.35,0.68,0.52,1.39,0.52,2.12c0,0.94-0.23,1.81-0.69,2.59c-0.46,0.78-1.09,1.36-1.89,1.72c1,0.3,1.81,0.85,2.41,1.66 c0.6,0.81,0.9,1.75,0.9,2.84c0,0.92-0.22,1.74-0.65,2.46c-0.44,0.72-1.03,1.28-1.77,1.68c-0.75,0.4-1.6,0.61-2.56,0.61H376.96z M378.56,134.15h6.32c0.65,0,1.2-0.18,1.67-0.53c0.47-0.36,0.84-0.81,1.1-1.36c0.27-0.55,0.4-1.13,0.4-1.72 c0-0.9-0.28-1.68-0.84-2.34c-0.56-0.67-1.29-1-2.21-1h-6.46V134.15z M378.56,142.53h6.86c0.65,0,1.23-0.17,1.74-0.52 c0.51-0.35,0.92-0.79,1.22-1.33c0.3-0.54,0.45-1.11,0.45-1.71c0-0.65-0.15-1.24-0.44-1.77c-0.29-0.53-0.68-0.96-1.17-1.3 c-0.49-0.33-1.05-0.5-1.67-0.5h-6.99V142.53z"></path> <path class="st0" d="M400.44,143.84v-17.98h1.67v7.97h10.74v-7.97h1.67v17.98h-1.67v-8.45h-10.74v8.45H400.44z"></path> <path class="st0" d="M424.2,138.67c0-1.08,0.31-2.02,0.94-2.81c0.62-0.79,1.48-1.42,2.58-1.86c1.09-0.45,2.35-0.67,3.78-0.67 c0.89,0,1.82,0.08,2.78,0.24c0.96,0.16,1.82,0.38,2.58,0.66v-1.69c0-1.65-0.46-2.97-1.39-3.96c-0.93-0.99-2.2-1.48-3.83-1.48 c-0.87,0-1.77,0.19-2.71,0.55c-0.94,0.37-1.9,0.9-2.88,1.59l-0.7-1.25c1.14-0.78,2.24-1.38,3.3-1.78c1.06-0.4,2.11-0.61,3.16-0.61 c2.07,0,3.71,0.63,4.92,1.9c1.2,1.26,1.81,2.99,1.81,5.17v8.9c0,0.28,0.06,0.48,0.18,0.62c0.12,0.14,0.31,0.22,0.55,0.24v1.42 c-0.2,0.02-0.37,0.03-0.5,0.03c-0.13,0-0.25,0-0.33,0c-0.42-0.07-0.75-0.25-0.99-0.55s-0.36-0.63-0.38-1v-1.42 c-0.8,1.04-1.84,1.85-3.09,2.42c-1.26,0.58-2.58,0.87-3.96,0.87c-1.09,0-2.08-0.24-2.96-0.72c-0.88-0.48-1.57-1.14-2.07-1.99 C424.45,140.64,424.2,139.7,424.2,138.67z M436.17,140.15c0.22-0.3,0.39-0.59,0.5-0.86c0.11-0.28,0.17-0.53,0.17-0.76v-2.97 c-0.8-0.32-1.64-0.56-2.51-0.72c-0.87-0.16-1.76-0.24-2.68-0.24c-1.74,0-3.15,0.36-4.23,1.07c-1.08,0.71-1.62,1.68-1.62,2.9 c0,0.76,0.19,1.46,0.57,2.1c0.38,0.64,0.91,1.16,1.59,1.55c0.68,0.39,1.47,0.59,2.36,0.59c1.25,0,2.4-0.25,3.46-0.74 C434.84,141.57,435.64,140.93,436.17,140.15z"></path> <path class="st0" d="M448.18,143.84l5.42-7.41c-1.25-0.14-2.25-0.66-2.99-1.57c-0.75-0.91-1.12-2.15-1.12-3.71 c0-0.99,0.23-1.88,0.69-2.66c0.46-0.78,1.1-1.41,1.94-1.9c0.84-0.48,1.82-0.73,2.96-0.73h6.22v17.98h-1.67v-7.17h-4.32l-5.22,7.17 H448.18z M454.84,135.29h4.78v-8h-4.32c-1.25,0-2.25,0.37-3.01,1.1c-0.76,0.74-1.14,1.67-1.14,2.79s0.31,2.09,0.92,2.9 C452.7,134.89,453.62,135.29,454.84,135.29z"></path> <path class="st0" d="M486.89,143.84v-17.98h1.67v7.97h3.21l6.16-7.97h1.97l-6.79,8.73l7.69,9.25h-2.04l-6.99-8.42h-3.21v8.42 H486.89z"></path> <path class="st0" d="M516.57,144.19c-1.23,0-2.36-0.24-3.4-0.72c-1.04-0.48-1.94-1.16-2.69-2.02c-0.76-0.86-1.35-1.85-1.77-2.97 c-0.42-1.12-0.64-2.29-0.64-3.54c0-1.29,0.21-2.49,0.64-3.61c0.42-1.12,1.02-2.1,1.79-2.97c0.77-0.86,1.67-1.54,2.71-2.04 c1.04-0.49,2.16-0.74,3.36-0.74c1.2,0,2.32,0.25,3.35,0.74c1.03,0.49,1.93,1.17,2.71,2.04c0.78,0.86,1.38,1.85,1.81,2.97 c0.42,1.12,0.64,2.32,0.64,3.61c0,1.24-0.21,2.42-0.64,3.54c-0.42,1.12-1.02,2.1-1.79,2.97c-0.77,0.86-1.67,1.54-2.71,2.02 C518.89,143.95,517.77,144.19,516.57,144.19z M509.74,134.94c0,1.43,0.31,2.72,0.92,3.88c0.61,1.16,1.43,2.09,2.46,2.78 c1.03,0.69,2.16,1.03,3.41,1.03c1.25,0,2.39-0.35,3.43-1.05c1.04-0.7,1.86-1.64,2.48-2.83c0.61-1.18,0.92-2.48,0.92-3.88 c0-1.4-0.31-2.69-0.92-3.86c-0.61-1.17-1.43-2.11-2.46-2.81c-1.03-0.7-2.16-1.05-3.41-1.05c-1.25,0-2.39,0.36-3.43,1.07 c-1.04,0.71-1.86,1.66-2.48,2.83C510.05,132.22,509.74,133.52,509.74,134.94z"></path> <path class="st0" d="M534.97,143.84v-17.98h1.67l7.33,12.93l7.33-12.93h1.64v17.98h-1.61V128.6l-6.83,12.03h-1.1l-6.83-12v15.21 H534.97z"></path> <path class="st0" d="M564.04,143.84v-17.98h13.55v17.98h-1.67v-16.42h-10.2v16.42H564.04z"></path> <path class="st0" d="M587.3,138.67c0-1.08,0.31-2.02,0.94-2.81c0.62-0.79,1.48-1.42,2.58-1.86c1.09-0.45,2.35-0.67,3.78-0.67 c0.89,0,1.82,0.08,2.78,0.24c0.96,0.16,1.82,0.38,2.58,0.66v-1.69c0-1.65-0.46-2.97-1.39-3.96c-0.93-0.99-2.2-1.48-3.83-1.48 c-0.87,0-1.77,0.19-2.71,0.55c-0.94,0.37-1.9,0.9-2.88,1.59l-0.7-1.25c1.14-0.78,2.24-1.38,3.3-1.78c1.06-0.4,2.11-0.61,3.16-0.61 c2.07,0,3.71,0.63,4.92,1.9c1.2,1.26,1.81,2.99,1.81,5.17v8.9c0,0.28,0.06,0.48,0.18,0.62c0.12,0.14,0.31,0.22,0.55,0.24v1.42 c-0.2,0.02-0.37,0.03-0.5,0.03c-0.13,0-0.25,0-0.34,0c-0.42-0.07-0.75-0.25-0.99-0.55s-0.36-0.63-0.39-1v-1.42 c-0.8,1.04-1.83,1.85-3.09,2.42s-2.58,0.87-3.96,0.87c-1.09,0-2.08-0.24-2.96-0.72c-0.88-0.48-1.57-1.14-2.07-1.99 C587.55,140.64,587.3,139.7,587.3,138.67z M599.27,140.15c0.22-0.3,0.39-0.59,0.5-0.86c0.11-0.28,0.17-0.53,0.17-0.76v-2.97 c-0.8-0.32-1.64-0.56-2.51-0.72c-0.87-0.16-1.76-0.24-2.68-0.24c-1.74,0-3.15,0.36-4.23,1.07c-1.08,0.71-1.62,1.68-1.62,2.9 c0,0.76,0.19,1.46,0.57,2.1c0.38,0.64,0.91,1.16,1.59,1.55c0.68,0.39,1.47,0.59,2.36,0.59c1.25,0,2.4-0.25,3.46-0.74 C597.94,141.57,598.74,140.93,599.27,140.15z"></path> <path class="st0" d="M612.59,143.84v-17.98h1.67v7.97H625v-7.97h1.67v17.98H625v-8.45h-10.74v8.45H612.59z"></path> <path class="st0" d="M637.78,143.84V125.9h1.67v15.59l11.31-15.63h1.54v17.98h-1.67V128.5l-11.17,15.35H637.78z"></path> <path class="st0" d="M662.07,143.84l5.42-7.41c-1.25-0.14-2.25-0.66-2.99-1.57c-0.75-0.91-1.12-2.15-1.12-3.71 c0-0.99,0.23-1.88,0.69-2.66c0.46-0.78,1.1-1.41,1.94-1.9c0.84-0.48,1.82-0.73,2.96-0.73h6.22v17.98h-1.67v-7.17h-4.32l-5.22,7.17 H662.07z M668.73,135.29h4.78v-8h-4.32c-1.25,0-2.25,0.37-3.01,1.1c-0.76,0.74-1.14,1.67-1.14,2.79s0.31,2.09,0.92,2.9 S667.5,135.29,668.73,135.29z"></path> </g> </g> <g> <g> <path class="st0" d="M30.66,148.87c3.89,4.49,8.19,8.55,12.86,12.11c8.72-6.72,18.39-6.34,28.02-2.65 c9.63,3.69,15.16,10.61,16.88,21.32c5.9,0.49,11.89,0.38,17.87-0.33c1.31-10.77,8.06-20.42,17.54-24.46 c9.48-4.04,21.32-2.3,30.3,4.09c4.6-3.79,8.76-8,12.4-12.56c-6.87-8.52-8.3-17.18-4.52-26.58c3.78-9.4,10.86-14.81,21.85-16.48 c0.5-5.76,0.39-11.6-0.34-17.44c-11.03-1.28-20.93-7.87-25.06-17.12c-4.14-9.26-1.56-19.05,4.99-27.81 c-3.89-4.5-8.2-8.55-12.86-12.11c-8.73,6.72-18.39,6.34-28.02,2.65c-9.63-3.7-15.16-10.61-16.88-21.33 c-5.89-0.49-11.88-0.38-17.86,0.33c-0.24,16.02-12.94,16.79-12.93,16.8c2.07,1.23,52.51,24.05,64.44,49.69 c0.06,0.13,0.12,0.26,0.18,0.38c9.65,21.59-1.46,47.11-24.79,57.05c-23.32,9.93-50.05,0.51-59.69-21.07 c-0.11-0.25-0.22-0.51-0.33-0.77c-0.09-0.23-0.18-0.46-0.28-0.69c-0.15-0.39-0.29-0.79-0.43-1.21c-0.07-0.2-0.14-0.4-0.2-0.6 c-0.28-0.86-0.53-1.76-0.76-2.69c-0.06-0.25-0.13-0.5-0.19-0.75c-0.21-0.9-0.4-1.84-0.58-2.8c-0.04-0.22-0.08-0.44-0.11-0.67 c-0.15-0.85-0.28-1.72-0.4-2.6c-0.04-0.27-0.07-0.55-0.1-0.83c-0.23-1.77-0.4-3.61-0.53-5.52c-0.05-0.63-0.09-1.27-0.12-1.91 c-0.03-0.64-0.06-1.29-0.08-1.96c-0.02-0.33-0.03-0.66-0.04-0.99c-0.22-6.85,0.04-14.26,0.56-21.71c0.06-0.81,0.11-1.62,0.18-2.42 c0.09-1.12,0.18-2.23,0.28-3.34c0.06-0.72,0.13-1.44,0.2-2.16c0.09-0.93,0.18-1.85,0.28-2.78c0.04-0.44,0.09-0.88,0.14-1.32 c0.01-0.06,0.01-0.12,0.02-0.18c0.18-1.69,0.37-3.37,0.57-5.03c0.09-0.77,0.18-1.54,0.28-2.3c0.04-0.34,0.09-0.68,0.13-1.02 c0.13-1.03,0.26-2.04,0.4-3.05c0.11-0.83,0.22-1.65,0.34-2.46c0.05-0.4,0.11-0.81,0.17-1.21c0.17-1.21,0.34-2.39,0.51-3.54 c-5.25-0.73-10.44-2.76-14.92-5.95c-4.6,3.8-8.76,8.01-12.4,12.56c6.88,8.52,8.31,17.19,4.52,26.59 C28.3,79.42,22,86.59,11.03,88.27c-0.5,5.76-0.39,11.6,0.34,17.44c11.03,1.28,20.13,6.1,24.27,15.36S37.2,140.1,30.66,148.87z"></path> <path class="st0" d="M43.52,160.98c-4.67-3.56-8.97-7.62-12.86-12.11c3.14-4.2,5.36-8.64,6.37-13.14 c9.89-0.76,19.88-3.02,29.34-7.53c12.68,10.44,31.4,13.44,48.33,6.23c23.33-9.93,34.43-35.46,24.79-57.05 c-0.06-0.12-0.11-0.25-0.18-0.38c-2.18-4.68-6.16-9.83-11.22-15.11c12.23-11.18,24.13-17.96,34.34-22.06 c0.34,0.38,0.67,0.75,1,1.13c-6.55,8.76-9.12,18.56-4.99,27.81c4.13,9.25,14.03,15.84,25.06,17.12 c0.73,5.84,0.84,11.68,0.34,17.44c-10.98,1.67-18.07,7.08-21.85,16.48c-3.78,9.4-2.35,18.06,4.52,26.58 c-3.64,4.55-7.79,8.76-12.4,12.56c-8.98-6.39-20.82-8.13-30.3-4.09c-9.48,4.04-16.23,13.69-17.54,24.46 c-5.98,0.71-11.97,0.82-17.87,0.33c-1.72-10.71-7.25-17.63-16.88-21.32C61.91,154.64,52.24,154.26,43.52,160.98z"></path> <path class="st0" d="M34.95,153.48c19.66-2.66,31.7-10.32,42.65-18.58c11.26,4.61,24.66,4.82,37.09-0.47 c12.47-5.31,21.44-15.07,25.62-26.3c9.96-0.64,20.33-0.38,30.19,0.35c-3.76,2.75-6.57,6.52-8.51,11.34 c-3.78,9.4-2.35,18.06,4.52,26.58c-3.64,4.55-7.79,8.76-12.4,12.56c-8.98-6.39-20.82-8.13-30.3-4.09 c-9.48,4.04-16.23,13.69-17.54,24.46c-5.98,0.71-11.97,0.82-17.87,0.33c-1.72-10.71-7.25-17.63-16.88-21.32 c-9.63-3.69-19.3-4.07-28.02,2.65C40.5,158.68,37.65,156.17,34.95,153.48z"></path> </g> <path class="st0" d="M126.1,67.41c-2-1.92-3.83-3.59-5.55-5.09c-10.21-8.95-15.86-11.26-24.2-16.19l-0.01,0.03 c0,0.02,0.01,0.04,0.01,0.09c-0.01,0.62-0.09,3.85-0.23,8.51L67.95,35.67c-0.02,0.18-0.02,0.36-0.01,0.53l28.16,19.08 c-0.03,0.98-0.06,2.01-0.11,3.09L67.91,39.34c0,0.23-0.01,0.44-0.01,0.66l28.06,19.03c0,0.16,0,0.29-0.02,0.46 c-0.03,0.81-0.06,1.65-0.09,2.5L67.88,43.02c0,0.26,0,0.53-0.01,0.79l27.97,18.96c-0.04,0.88-0.07,1.77-0.11,2.68 c0,0.05,0,0.09,0,0.14L67.84,46.7c-0.01,0.31-0.01,0.6-0.01,0.9l27.85,18.88c-0.03,0.89-0.08,1.79-0.12,2.71L67.75,50.33 c-0.02,0.33-0.03,0.69-0.03,1.02l27.8,18.84c-0.04,0.86-0.09,1.71-0.12,2.56L67.61,53.94c-0.01,0.37-0.03,0.76-0.04,1.14 l27.75,18.82c-0.05,0.82-0.09,1.62-0.13,2.43L67.48,57.55c-0.03,0.43-0.04,0.86-0.05,1.28l27.69,18.76 c-0.04,0.77-0.09,1.54-0.14,2.3L67.35,61.15c-0.02,0.47-0.03,0.93-0.06,1.39l27.62,18.7c-0.05,0.73-0.1,1.46-0.15,2.17L67.22,64.76 c-0.03,0.5-0.06,1-0.07,1.51l27.49,18.64c-0.04,0.69-0.09,1.37-0.15,2.05L67.07,68.37c-0.01,0.54-0.04,1.08-0.06,1.63l27.36,18.54 c-0.05,0.65-0.11,1.28-0.16,1.91L66.93,71.98c0,0.57-0.04,1.16-0.07,1.75l27.18,18.41c-0.06,0.6-0.12,1.18-0.19,1.76L66.8,75.57 c-0.02,0.64-0.04,1.25-0.07,1.89l26.93,18.25c-0.07,0.56-0.13,1.1-0.21,1.63l-26.8-18.16c-0.02,0.67-0.05,1.33-0.07,2L93.2,99.23 c-0.02,0.11-0.03,0.23-0.04,0.33c-0.06,0.39-0.13,0.76-0.21,1.14L66.52,82.78c-0.03,0.71-0.06,1.42-0.09,2.13l26.11,17.69 c-0.03,0.07-0.04,0.13-0.09,0.2c-0.1,0.35-0.22,0.7-0.33,1.04L66.38,86.38c-0.04,0.74-0.06,1.49-0.09,2.24l25.15,17.05 c-0.16,0.37-0.33,0.71-0.5,1.05L66.23,89.98c0,0.3-0.02,0.6-0.03,0.91c-0.02,0.49-0.03,0.99-0.03,1.48l23.8,16.13 c-0.05,0.07-0.09,0.14-0.13,0.21c-0.15,0.24-0.31,0.44-0.47,0.66l-23.2-15.73c0.02,0.9,0.07,1.79,0.16,2.67l21.73,14.73 c-0.19,0.2-0.36,0.4-0.55,0.59c-0.03,0.04-0.07,0.07-0.11,0.11L66.46,97.53c0.14,1.04,0.33,2.07,0.58,3.08l18.65,12.64 c-0.24,0.19-0.47,0.35-0.71,0.52l-17.62-11.94c0.37,1.29,0.85,2.56,1.43,3.78l13.78,9.34c0.4-0.1,0.78-0.23,1.15-0.36 c-0.16,0.09-0.32,0.18-0.48,0.27l-1.68,0.28l-12.09-8.2c0,0,2.98,5.96,0.53,6.69c-0.42-0.38-0.83-0.81-1.24-1.29 c-5.42-6.31-7.14-13.92-6.79-22.07c0.62-14.62,1.13-29.23,1.68-43.85c0.2-5.54,0.12-16.04,0.3-19.62c2,1.42,10.13,6.88,12.35,8.26 c-3.33-3-13.6-10.64-13.6-10.64s-0.46,2.95-0.56,4.06c-1.38,16.25-2.91,32.5-4.6,48.71c-0.75,7.25-1.49,14.51-0.46,21.79 c0.97,6.86,2.86,13.35,8.13,18.45c7.15,6.9,19.36,6.72,26.31,1.15c4.78-3.82,6.98-8.78,7.62-14.56c0.12-1.11,0.23-2.21,0.33-3.32 c0.76-8.66,0.83-17.35,1.47-26c0.17-2.18,0.32-4.36,0.42-6.54c0.04-0.59,0.07-1.16,0.11-1.75c0.06-1.18,0.08-2.65,0.15-4.22 c0.07-1.93,0.18-4,0.45-5.84c0.59,0.06,19.24,13.63,19.24,13.63c0.1,0.11,0.21,0.22,0.3,0.33c0.7,0.77,1.3,1.47,1.84,2.13 l-17.14-12.5c-0.05,0.94-0.07,1.9-0.08,2.84l20.99,15.29c0.32,0.54,0.64,1.12,0.94,1.72l-21.93-15.99c-0.01,0.99,0,1.93,0.01,2.77 l23.47,17.12c0.06,0.21,0.13,0.4,0.19,0.6c0.08,0.29,0.15,0.59,0.24,0.87l-23.92-17.45c-0.01,0.53-0.03,1.05-0.04,1.57 c-0.01,0.34-0.01,0.69-0.03,1.02l24.66,17.98c0.09,0.48,0.16,0.98,0.23,1.46l-24.91-18.17c-0.02,0.82-0.05,1.64-0.08,2.44 l25.25,18.41c0.01,0.21,0.03,0.42,0.03,0.64c0.02,0.27,0.01,0.55,0.01,0.82L106,75.44c0,0.08-0.01,0.15-0.02,0.22 c-0.02,0.7-0.05,1.4-0.06,2.1l25.38,18.51c-0.02,0.49-0.05,0.99-0.1,1.48l-25.32-18.47c-0.03,0.74-0.04,1.47-0.06,2.21l25.13,18.32 c-0.04,0.25-0.05,0.5-0.1,0.74c-0.05,0.26-0.12,0.5-0.17,0.75L105.8,83.14c-0.01,0.7-0.01,1.39-0.02,2.1l24.49,17.86 c-0.13,0.5-0.27,1-0.44,1.49l-24.07-17.56c-0.01,0.65-0.02,1.32-0.03,1.97l23.53,17.16c-0.1,0.25-0.17,0.51-0.29,0.76 c-0.09,0.22-0.18,0.43-0.28,0.65c-0.02,0.03-0.03,0.06-0.05,0.09l-22.94-16.73c-0.01,0.62-0.02,1.23-0.03,1.83l22.29,16.27 c-0.26,0.5-0.53,1-0.82,1.48l-21.52-15.69c-0.01,0.56-0.02,1.12-0.05,1.68l20.82,15.18c-0.15,0.23-0.3,0.46-0.45,0.69 c-0.19,0.27-0.39,0.52-0.58,0.78l-19.87-14.48c0,0,0,0,0,0.01c0,0.01,0,0.03,0.01,0.04c0,0.02,0,0.05-0.01,0.08l0,0.01 c-0.01,0.04,0,0.07-0.01,0.1c0,0.26,0.01,0.71-0.02,1.32l19.11,13.93c-0.31,0.39-0.63,0.78-0.96,1.14c-0.09,0.1-0.18,0.2-0.27,0.29 l-18.01-13.13c-0.03,0.41-0.07,0.84-0.12,1.3c0,0.02,0,0.05,0,0.07l17.32,12.64c-0.17,0.17-0.34,0.34-0.5,0.5 c-0.32,0.31-0.64,0.6-0.97,0.89L105,106.12c-0.07,0.4-0.13,0.8-0.21,1.18l15.47,11.29c-0.29,0.24-0.57,0.49-0.88,0.73 c-0.26,0.21-0.55,0.4-0.82,0.61l-14.2-10.35c-0.07,0.34-0.15,0.69-0.22,1.03l13.6,9.93c-0.12,0.08-0.22,0.17-0.35,0.25 c-0.53,0.36-1.07,0.71-1.62,1.05l-12.25-8.94c-0.08,0.3-0.17,0.59-0.26,0.88l11.7,8.54c-0.17,0.1-0.34,0.2-0.49,0.3 c-0.58,0.33-1.16,0.62-1.74,0.92l-10.27-7.49c-0.1,0.25-0.2,0.48-0.3,0.72l9.8,7.15c-0.84,0.41-1.69,0.78-2.54,1.13l-8.31-6.06 c-0.1,0.19-0.2,0.38-0.31,0.58l7.9,5.77c-0.87,0.34-1.74,0.65-2.6,0.93c-0.1,0.03-0.18,0.05-0.27,0.08l-6.38-4.65 c-0.11,0.14-0.22,0.29-0.33,0.44l6.05,4.42c-1.09,0.34-2.17,0.64-3.22,0.89l-4.56-3.33c-0.11,0.11-0.23,0.21-0.34,0.31l4.33,3.16 c-5.18,1.2-9.47,1.42-11.29,1.35c0.17,0.12,8.6,1.66,18.93-1.24c1.01-0.28,2.01-0.61,3.04-0.98c1.07-0.38,2.12-0.81,3.21-1.29 c0.83-0.37,1.67-0.78,2.5-1.22c1.02-0.53,2.04-1.12,3.05-1.78c0.4-0.26,0.82-0.53,1.24-0.82c1.25-0.98,2.42-2.01,3.5-3.07 c0.28-0.25,0.54-0.5,0.8-0.77l-0.04-0.03c0.45-0.46,0.87-0.93,1.28-1.41l0.07,0.05c0.18-0.21,0.36-0.41,0.54-0.62 c0.09-0.11,0.19-0.24,0.29-0.36l-0.07-0.06c0.38-0.47,0.74-0.94,1.08-1.41l0.07,0.05c0.23-0.33,0.47-0.66,0.68-1 c0.03-0.05,0.07-0.1,0.09-0.16l-0.07-0.05c0.31-0.47,0.6-0.94,0.89-1.42l0.04,0.03c0.04-0.05,0.06-0.11,0.1-0.16 c0.2-0.38,0.41-0.78,0.59-1.18l0-0.01c2.71-5.14,4.02-10.89,4.09-17.13c0.02-1.01-0.01-2.04-0.06-3.08 c-0.05-0.93-0.13-1.84-0.26-2.73c-0.11-0.9-0.26-1.78-0.44-2.64c-0.53-2.52-1.33-4.94-2.41-7.23 C131.19,73.7,128.93,70.44,126.1,67.41z"></path> </g> </svg> 