<?xml version="1.0" encoding="UTF-8"?> <svg xmlns="http://www.w3.org/2000/svg" xmlns:xlink="http://www.w3.org/1999/xlink" version="1.1" id="Слой_1" x="0px" y="0px" viewBox="0 0 841.89 595.28" style="enable-background:new 0 0 841.89 595.28;" xml:space="preserve"> <style type="text/css"> .st0{fill:#2E4082;} .st1{fill:#3C3C3B;} .st2{fill:url(#SVGID_1_);} .st3{fill:url(#SVGID_00000039125195492871819460000009108111714118348715_);} .st4{fill:url(#SVGID_00000041285745446950681030000007232903536839026852_);} .st5{fill:url(#SVGID_00000183206916663698191690000011430064383904271239_);} </style> <g> <g> <path class="st0" d="M173.43,527.7v-58.68h9.26v45.62l31.33-45.62h8.68v58.68h-9.34v-44.96l-30.91,44.96H173.43z"></path> <path class="st0" d="M284.52,469.02v58.68h-9.26v-25.87h-29.59v25.87h-9.34v-58.68h9.34v24.55h29.59v-24.55H284.52z"></path> <path class="st0" d="M340.8,477.2H321.3v50.5h-9.34v-50.5h-19.59v-8.18h48.43V477.2z"></path> <path class="st0" d="M388.91,519.52v8.18h-40.25v-58.68h39.51v8.18H358v16.78h26.2v7.6H358v17.94H388.91z"></path> <path class="st0" d="M436.6,527.7v-50.5h-19.59l-0.33,10.91c-0.28,7.88-0.9,14.4-1.86,19.55c-0.96,5.15-2.33,9.2-4.09,12.15 c-1.76,2.95-3.97,5.04-6.61,6.28c-2.65,1.24-5.81,1.86-9.51,1.86v-8.1c2.04,0,3.83-0.48,5.37-1.45c1.54-0.96,2.85-2.69,3.93-5.17 s1.93-5.95,2.56-10.42c0.63-4.46,1.06-10.22,1.28-17.27l0.58-16.53h37.61v58.68H436.6z"></path> <path class="st0" d="M497.27,527.7v-50.5h-19.59l-0.33,10.91c-0.28,7.88-0.9,14.4-1.86,19.55c-0.96,5.15-2.33,9.2-4.09,12.15 c-1.76,2.95-3.97,5.04-6.61,6.28c-2.65,1.24-5.81,1.86-9.51,1.86v-8.1c2.04,0,3.83-0.48,5.37-1.45c1.54-0.96,2.85-2.69,3.93-5.17 s1.93-5.95,2.56-10.42c0.63-4.46,1.06-10.22,1.28-17.27l0.58-16.53h37.61v58.68H497.27z"></path> <path class="st0" d="M560.08,519.52v8.18h-40.25v-58.68h39.51v8.18h-30.17v16.78h26.2v7.6h-26.2v17.94H560.08z"></path> <path class="st0" d="M569.75,527.7v-58.68h9.26v24.55h6.86l18.51-24.55h10.41l-21.49,28.43l23.14,30.25h-11.32L585.87,502h-6.86 v25.7H569.75z"></path> <path class="st0" d="M668.03,477.2h-19.51v50.5h-9.34v-50.5h-19.59v-8.18h48.43V477.2z"></path> </g> <g> <path class="st1" d="M220.07,561.94v-15.53h-6.26v-1.47H228v1.47h-6.29v15.53H220.07z"></path> <path class="st1" d="M244.09,562.27c-1.2,0-2.31-0.23-3.33-0.68c-1.02-0.46-1.9-1.09-2.64-1.91c-0.74-0.82-1.32-1.75-1.74-2.81 c-0.41-1.06-0.62-2.17-0.62-3.35c0-1.22,0.21-2.36,0.62-3.41c0.41-1.06,1-1.99,1.75-2.81c0.75-0.82,1.64-1.46,2.65-1.93 c1.02-0.47,2.11-0.7,3.29-0.7c1.18,0,2.27,0.23,3.28,0.7c1,0.47,1.89,1.11,2.65,1.93c0.77,0.82,1.35,1.75,1.77,2.81 c0.41,1.06,0.62,2.19,0.62,3.41c0,1.18-0.21,2.29-0.62,3.35c-0.42,1.06-1,1.99-1.75,2.81c-0.75,0.82-1.64,1.45-2.65,1.91 C246.37,562.04,245.27,562.27,244.09,562.27z M237.4,553.52c0,1.35,0.3,2.57,0.9,3.67c0.6,1.1,1.4,1.97,2.41,2.63 c1,0.65,2.12,0.98,3.34,0.98c1.22,0,2.34-0.33,3.36-0.99c1.02-0.66,1.82-1.56,2.42-2.68c0.6-1.12,0.9-2.34,0.9-3.67 c0-1.33-0.3-2.54-0.9-3.65c-0.6-1.11-1.4-2-2.41-2.66c-1.01-0.66-2.12-1-3.34-1c-1.22,0-2.34,0.34-3.36,1.01 c-1.02,0.67-1.82,1.57-2.43,2.68C237.7,550.94,237.4,552.17,237.4,553.52z"></path> <path class="st1" d="M262.11,561.94v-17.01h13.27v17.01h-1.64v-15.53h-10v15.53H262.11z"></path> <path class="st1" d="M284.56,561.94v-1.51c0.59,0,1.13-0.17,1.61-0.5c0.48-0.34,0.91-0.91,1.28-1.71c0.37-0.8,0.67-1.92,0.9-3.34 c0.23-1.42,0.38-3.22,0.44-5.39l0.16-4.56h10.62v16.94h-1.64v-15.47h-7.51l-0.07,3.19c-0.09,2.39-0.27,4.38-0.54,5.98 c-0.27,1.6-0.65,2.86-1.13,3.78c-0.48,0.92-1.07,1.59-1.75,1.99C286.25,561.74,285.46,561.94,284.56,561.94z"></path> <path class="st1" d="M310.45,561.94v-16.98h1.64v14.75l11.08-14.78h1.51v17.01h-1.64v-14.52l-10.95,14.52H310.45z"></path> <path class="st1" d="M335.52,561.94v-17.01h8.23c0.92,0,1.69,0.2,2.31,0.6c0.62,0.4,1.1,0.93,1.44,1.57 c0.34,0.64,0.51,1.31,0.51,2.01c0,0.89-0.22,1.71-0.67,2.45c-0.45,0.74-1.07,1.28-1.85,1.63c0.98,0.28,1.77,0.81,2.36,1.57 c0.59,0.76,0.88,1.66,0.88,2.69c0,0.87-0.21,1.65-0.64,2.33c-0.43,0.68-1.01,1.21-1.74,1.59c-0.73,0.38-1.57,0.57-2.51,0.57 H335.52z M337.1,552.76h6.19c0.63,0,1.18-0.17,1.64-0.51c0.46-0.34,0.82-0.77,1.08-1.29c0.26-0.52,0.39-1.07,0.39-1.63 c0-0.85-0.27-1.59-0.82-2.22c-0.55-0.63-1.27-0.95-2.16-0.95h-6.33V552.76z M337.1,560.69h6.72c0.63,0,1.2-0.16,1.7-0.49 c0.5-0.33,0.9-0.75,1.2-1.26c0.29-0.51,0.44-1.05,0.44-1.62c0-0.61-0.14-1.17-0.43-1.67c-0.28-0.5-0.67-0.91-1.15-1.23 s-1.03-0.48-1.64-0.48h-6.85V560.69z"></path> <path class="st1" d="M358.53,561.94v-17.01h1.64v7.54h10.52v-7.54h1.64v17.01h-1.64v-8h-10.52v8H358.53z"></path> <path class="st1" d="M381.8,557.04c0-1.02,0.31-1.91,0.92-2.66c0.61-0.75,1.45-1.34,2.52-1.76c1.07-0.42,2.31-0.64,3.7-0.64 c0.87,0,1.78,0.08,2.72,0.23c0.94,0.15,1.78,0.36,2.52,0.62v-1.6c0-1.56-0.45-2.81-1.36-3.75c-0.91-0.93-2.16-1.4-3.75-1.4 c-0.85,0-1.74,0.18-2.65,0.52c-0.92,0.35-1.86,0.85-2.82,1.51l-0.69-1.18c1.11-0.74,2.19-1.3,3.23-1.69 c1.04-0.38,2.07-0.57,3.1-0.57c2.03,0,3.64,0.6,4.82,1.8c1.18,1.2,1.77,2.83,1.77,4.9v8.42c0,0.26,0.06,0.46,0.18,0.59 c0.12,0.13,0.3,0.21,0.54,0.23v1.34c-0.2,0.02-0.36,0.03-0.49,0.03c-0.13,0-0.24,0-0.33,0c-0.42-0.07-0.74-0.24-0.97-0.52 s-0.36-0.6-0.38-0.95v-1.34c-0.79,0.98-1.8,1.75-3.03,2.29c-1.24,0.55-2.53,0.82-3.88,0.82c-1.07,0-2.04-0.23-2.9-0.68 c-0.86-0.46-1.54-1.08-2.03-1.88C382.04,558.91,381.8,558.02,381.8,557.04z M393.53,558.44c0.22-0.28,0.38-0.55,0.49-0.82 c0.11-0.26,0.16-0.5,0.16-0.72v-2.81c-0.79-0.3-1.61-0.53-2.46-0.68c-0.85-0.15-1.73-0.23-2.62-0.23c-1.7,0-3.09,0.34-4.15,1.01 c-1.06,0.67-1.59,1.59-1.59,2.74c0,0.72,0.19,1.38,0.56,1.99c0.37,0.61,0.89,1.1,1.56,1.47c0.67,0.37,1.44,0.55,2.31,0.55 c1.22,0,2.35-0.23,3.39-0.7C392.22,559.79,393.01,559.18,393.53,558.44z"></path> <path class="st1" d="M405.29,561.94l5.31-7.01c-1.22-0.13-2.2-0.63-2.93-1.49c-0.73-0.86-1.1-2.03-1.1-3.51 c0-0.94,0.22-1.77,0.67-2.51c0.45-0.74,1.08-1.34,1.9-1.8c0.82-0.46,1.79-0.69,2.9-0.69h6.1v17.01h-1.64v-6.78h-4.23l-5.11,6.78 H405.29z M411.82,553.84h4.69v-7.57h-4.23c-1.22,0-2.21,0.35-2.95,1.04c-0.74,0.7-1.11,1.58-1.11,2.64s0.3,1.98,0.9,2.74 C409.71,553.46,410.61,553.84,411.82,553.84z"></path> <path class="st1" d="M443.21,561.94v-17.01h1.64v7.54H448l6.03-7.54h1.93l-6.65,8.26l7.54,8.75h-2l-6.85-7.96h-3.15v7.96H443.21z"></path> <path class="st1" d="M472.28,562.27c-1.2,0-2.31-0.23-3.33-0.68c-1.02-0.46-1.9-1.09-2.64-1.91c-0.74-0.82-1.32-1.75-1.74-2.81 c-0.41-1.06-0.62-2.17-0.62-3.35c0-1.22,0.21-2.36,0.62-3.41c0.41-1.06,1-1.99,1.75-2.81c0.75-0.82,1.64-1.46,2.65-1.93 c1.02-0.47,2.11-0.7,3.29-0.7c1.18,0,2.27,0.23,3.28,0.7c1,0.47,1.89,1.11,2.65,1.93c0.77,0.82,1.35,1.75,1.77,2.81 c0.41,1.06,0.62,2.19,0.62,3.41c0,1.18-0.21,2.29-0.62,3.35c-0.42,1.06-1,1.99-1.75,2.81c-0.75,0.82-1.64,1.45-2.65,1.91 C474.56,562.04,473.46,562.27,472.28,562.27z M465.59,553.52c0,1.35,0.3,2.57,0.9,3.67c0.6,1.1,1.4,1.97,2.41,2.63 c1,0.65,2.12,0.98,3.34,0.98c1.22,0,2.34-0.33,3.36-0.99c1.02-0.66,1.82-1.56,2.42-2.68c0.6-1.12,0.9-2.34,0.9-3.67 c0-1.33-0.3-2.54-0.9-3.65c-0.6-1.11-1.4-2-2.41-2.66c-1.01-0.66-2.12-1-3.34-1c-1.22,0-2.34,0.34-3.36,1.01 c-1.02,0.67-1.82,1.57-2.43,2.68C465.89,550.94,465.59,552.17,465.59,553.52z"></path> <path class="st1" d="M490.3,561.94v-17.01h1.64l7.18,12.23l7.18-12.23h1.61v17.01h-1.57v-14.43l-6.69,11.38h-1.08l-6.69-11.35 v14.39H490.3z"></path> <path class="st1" d="M518.78,561.94v-17.01h13.27v17.01h-1.64v-15.53h-9.99v15.53H518.78z"></path> <path class="st1" d="M541.56,557.04c0-1.02,0.3-1.91,0.92-2.66c0.61-0.75,1.45-1.34,2.52-1.76c1.07-0.42,2.3-0.64,3.7-0.64 c0.87,0,1.78,0.08,2.72,0.23c0.94,0.15,1.78,0.36,2.52,0.62v-1.6c0-1.56-0.45-2.81-1.36-3.75c-0.91-0.93-2.16-1.4-3.75-1.4 c-0.85,0-1.74,0.18-2.65,0.52c-0.92,0.35-1.86,0.85-2.82,1.51l-0.69-1.18c1.11-0.74,2.19-1.3,3.23-1.69 c1.04-0.38,2.07-0.57,3.1-0.57c2.03,0,3.64,0.6,4.82,1.8s1.77,2.83,1.77,4.9v8.42c0,0.26,0.06,0.46,0.18,0.59 c0.12,0.13,0.3,0.21,0.54,0.23v1.34c-0.2,0.02-0.36,0.03-0.49,0.03c-0.13,0-0.24,0-0.33,0c-0.41-0.07-0.74-0.24-0.97-0.52 c-0.23-0.28-0.35-0.6-0.38-0.95v-1.34c-0.79,0.98-1.8,1.75-3.03,2.29c-1.23,0.55-2.53,0.82-3.88,0.82c-1.07,0-2.04-0.23-2.9-0.68 c-0.86-0.46-1.54-1.08-2.03-1.88S541.56,558.02,541.56,557.04z M553.29,558.44c0.22-0.28,0.38-0.55,0.49-0.82 c0.11-0.26,0.16-0.5,0.16-0.72v-2.81c-0.79-0.3-1.61-0.53-2.46-0.68c-0.85-0.15-1.73-0.23-2.62-0.23c-1.71,0-3.09,0.34-4.15,1.01 s-1.59,1.59-1.59,2.74c0,0.72,0.19,1.38,0.56,1.99c0.37,0.61,0.89,1.1,1.56,1.47c0.67,0.37,1.44,0.55,2.31,0.55 c1.22,0,2.35-0.23,3.39-0.7C551.99,559.79,552.77,559.18,553.29,558.44z"></path> <path class="st1" d="M566.33,561.94v-17.01h1.64v7.54h10.52v-7.54h1.64v17.01h-1.64v-8h-10.52v8H566.33z"></path> <path class="st1" d="M591.01,561.94v-16.98h1.64v14.75l11.08-14.78h1.51v17.01h-1.64v-14.52l-10.95,14.52H591.01z"></path> <path class="st1" d="M614.8,561.94l5.31-7.01c-1.22-0.13-2.2-0.63-2.93-1.49c-0.73-0.86-1.1-2.03-1.1-3.51 c0-0.94,0.22-1.77,0.67-2.51c0.45-0.74,1.08-1.34,1.9-1.8c0.82-0.46,1.79-0.69,2.9-0.69h6.09v17.01h-1.64v-6.78h-4.23l-5.11,6.78 H614.8z M621.33,553.84h4.69v-7.57h-4.23c-1.22,0-2.21,0.35-2.95,1.04c-0.74,0.7-1.11,1.58-1.11,2.64s0.3,1.98,0.9,2.74 S620.12,553.84,621.33,553.84z"></path> </g> </g> <g> <g> <linearGradient id="SVGID_1_" gradientUnits="userSpaceOnUse" x1="248.1601" y1="152.1743" x2="248.1601" y2="533.4933" gradientTransform="matrix(-0.9166 0.3998 0.3998 0.9166 509.7603 -179.6216)"> <stop offset="0" style="stop-color:#36A9E1"></stop> <stop offset="1" style="stop-color:#2E4082"></stop> </linearGradient> <path class="st2" d="M266.78,360.89c8.94,10.58,18.83,20.12,29.57,28.51c20.05-15.82,42.27-14.93,64.41-6.24 c22.14,8.69,34.85,24.98,38.79,50.21c13.56,1.16,27.32,0.89,41.07-0.78c3.02-25.36,18.53-48.09,40.32-57.59 c21.79-9.51,49-5.41,69.64,9.63c10.58-8.93,20.14-18.84,28.5-29.56c-15.79-20.06-19.08-40.46-10.4-62.59s24.97-34.86,50.22-38.8 c1.14-13.57,0.89-27.32-0.78-41.07c-25.36-3.02-48.11-18.53-57.61-40.31c-9.51-21.79-3.59-44.85,11.46-65.48 c-8.95-10.59-18.85-20.13-29.57-28.51c-20.07,15.81-42.28,14.94-64.42,6.25c-22.14-8.7-34.85-24.98-38.81-50.21 c-13.54-1.15-27.31-0.89-41.06,0.78c-0.55,37.71-29.75,39.53-29.72,39.55c4.75,2.89,120.69,56.62,148.12,117.01 c0.15,0.3,0.28,0.6,0.41,0.9c22.17,50.83-3.35,110.93-56.97,134.32c-53.61,23.39-115.04,1.21-137.21-49.62 c-0.26-0.6-0.51-1.2-0.76-1.82c-0.22-0.54-0.42-1.08-0.63-1.63c-0.34-0.93-0.67-1.87-0.99-2.85c-0.17-0.46-0.31-0.94-0.46-1.41 c-0.65-2.02-1.22-4.14-1.75-6.34c-0.14-0.58-0.29-1.17-0.43-1.77c-0.48-2.12-0.93-4.33-1.33-6.6c-0.09-0.53-0.19-1.04-0.26-1.58 c-0.35-1.99-0.64-4.05-0.92-6.13c-0.09-0.64-0.17-1.3-0.24-1.96c-0.52-4.16-0.92-8.5-1.21-12.99c-0.11-1.48-0.2-2.99-0.28-4.51 c-0.08-1.51-0.15-3.05-0.19-4.6c-0.04-0.77-0.06-1.55-0.09-2.33c-0.5-16.12,0.08-33.58,1.29-51.11c0.13-1.9,0.26-3.81,0.42-5.71 c0.2-2.63,0.41-5.25,0.64-7.87c0.15-1.69,0.31-3.39,0.45-5.08c0.21-2.19,0.42-4.37,0.63-6.54c0.1-1.04,0.21-2.08,0.32-3.11 c0.01-0.15,0.03-0.28,0.04-0.41c0.41-3.98,0.85-7.93,1.31-11.84c0.2-1.82,0.42-3.63,0.63-5.42c0.09-0.8,0.2-1.6,0.29-2.4 c0.3-2.42,0.6-4.81,0.91-7.17c0.25-1.96,0.51-3.89,0.77-5.8c0.12-0.95,0.26-1.91,0.38-2.85c0.39-2.84,0.79-5.62,1.18-8.34 c-12.07-1.73-24.01-6.5-34.31-14.01c-10.58,8.94-20.13,18.85-28.5,29.56c15.81,20.07,19.09,40.47,10.4,62.61 c-8.69,22.14-23.16,39.01-48.39,42.96c-1.16,13.56-0.89,27.31,0.78,41.06c25.36,3.02,46.28,14.37,55.78,36.17 C287.73,317.2,281.82,340.24,266.78,360.89z"></path> <linearGradient id="SVGID_00000032647850738991193240000002498481213849636281_" gradientUnits="userSpaceOnUse" x1="57.5006" y1="408.7419" x2="438.8196" y2="408.7419" gradientTransform="matrix(-0.9166 0.3998 0.3998 0.9166 509.7603 -179.6216)"> <stop offset="0" style="stop-color:#36A9E1"></stop> <stop offset="1" style="stop-color:#2E4082"></stop> </linearGradient> <path style="fill:url(#SVGID_00000032647850738991193240000002498481213849636281_);" d="M296.35,389.4 c-10.73-8.39-20.63-17.94-29.57-28.51c7.21-9.89,12.31-20.34,14.63-30.93c22.74-1.79,45.71-7.12,67.44-17.73 c29.15,24.58,72.17,31.64,111.1,14.66c53.63-23.39,79.14-83.5,56.97-134.32c-0.13-0.29-0.26-0.6-0.41-0.9 c-5.01-11.03-14.17-23.14-25.8-35.58c28.12-26.33,55.48-42.3,78.94-51.94c0.77,0.88,1.55,1.76,2.31,2.66 c-15.05,20.63-20.96,43.69-11.46,65.48c9.5,21.78,32.24,37.29,57.61,40.31c1.67,13.75,1.92,27.5,0.78,41.07 c-25.25,3.94-41.53,16.66-50.22,38.8s-5.4,42.53,10.4,62.59c-8.36,10.72-17.92,20.63-28.5,29.56 c-20.64-15.04-47.85-19.13-69.64-9.63c-21.79,9.51-37.3,32.23-40.32,57.59c-13.75,1.67-27.51,1.94-41.07,0.78 c-3.95-25.23-16.66-41.52-38.79-50.21C338.62,374.47,316.4,373.58,296.35,389.4z"></path> <linearGradient id="SVGID_00000054265417774941293100000016664024379387864195_" gradientUnits="userSpaceOnUse" x1="270.1291" y1="533.4933" x2="270.1291" y2="411.1156" gradientTransform="matrix(-0.9166 0.3998 0.3998 0.9166 509.7603 -179.6216)"> <stop offset="0" style="stop-color:#36A9E1"></stop> <stop offset="1" style="stop-color:#2E4082"></stop> </linearGradient> <path style="fill:url(#SVGID_00000054265417774941293100000016664024379387864195_);" d="M276.65,371.73 c45.19-6.26,72.86-24.29,98.04-43.74c25.89,10.86,56.68,11.35,85.26-1.11c28.66-12.5,49.28-35.49,58.89-61.94 c22.9-1.5,46.73-0.89,69.4,0.82c-8.63,6.49-15.1,15.34-19.56,26.69c-8.69,22.14-5.4,42.53,10.4,62.59 c-8.36,10.72-17.92,20.63-28.5,29.56c-20.64-15.04-47.85-19.13-69.64-9.63c-21.79,9.51-37.3,32.23-40.32,57.59 c-13.75,1.67-27.51,1.94-41.07,0.78c-3.95-25.23-16.66-41.52-38.79-50.21c-22.14-8.69-44.36-9.57-64.41,6.24 C289.42,383.98,282.84,378.08,276.65,371.73z"></path> </g> <linearGradient id="SVGID_00000075882605826242707250000015823606589807205050_" gradientUnits="userSpaceOnUse" x1="425.3997" y1="146.8521" x2="609.7355" y2="146.8521" gradientTransform="matrix(0.9013 -0.4331 0.4331 0.9013 -132.5589 280.1707)"> <stop offset="0" style="stop-color:#36A9E1"></stop> <stop offset="1" style="stop-color:#2E4082"></stop> </linearGradient> <path style="fill:url(#SVGID_00000075882605826242707250000015823606589807205050_);" d="M486.17,169.09 c-4.59-4.51-8.81-8.46-12.76-11.99c-23.47-21.06-36.47-26.51-55.63-38.11l-0.02,0.06c0,0.05,0.02,0.1,0.02,0.2 c-0.03,1.46-0.2,9.07-0.54,20.04L352.5,94.36c-0.04,0.41-0.05,0.84-0.03,1.25l64.73,44.93c-0.08,2.3-0.15,4.73-0.24,7.28 l-64.55-44.83c-0.01,0.53-0.03,1.04-0.01,1.56l64.51,44.8c-0.01,0.37-0.01,0.69-0.04,1.07c-0.06,1.9-0.14,3.88-0.2,5.89 l-64.33-44.65c0,0.61-0.01,1.24-0.03,1.86l64.3,44.64c-0.09,2.07-0.16,4.16-0.26,6.31c0,0.11,0,0.21-0.01,0.32l-64.09-44.48 c-0.02,0.72-0.03,1.41-0.03,2.12l64.02,44.45c-0.08,2.09-0.18,4.22-0.28,6.38l-63.92-44.4c-0.04,0.79-0.07,1.61-0.08,2.41 l63.9,44.36c-0.08,2.02-0.2,4.02-0.29,6.04l-63.85-44.3c-0.02,0.88-0.06,1.79-0.08,2.67l63.79,44.3c-0.1,1.92-0.2,3.81-0.3,5.73 l-63.7-44.21c-0.07,1.01-0.08,2.02-0.11,3l63.65,44.16c-0.1,1.81-0.21,3.63-0.32,5.42l-63.53-44.08c-0.05,1.1-0.08,2.2-0.14,3.28 l63.48,44.03c-0.12,1.72-0.22,3.43-0.34,5.11l-63.3-43.93c-0.06,1.19-0.13,2.35-0.16,3.55l63.2,43.88 c-0.09,1.62-0.21,3.24-0.34,4.83l-63.04-43.77c-0.02,1.27-0.09,2.55-0.13,3.83l62.88,43.66c-0.11,1.53-0.26,3.02-0.37,4.5 l-62.69-43.49c-0.01,1.35-0.09,2.73-0.15,4.13l62.47,43.36c-0.14,1.41-0.27,2.79-0.43,4.16l-62.2-43.17 c-0.04,1.5-0.09,2.94-0.15,4.45l61.91,42.97c-0.16,1.31-0.31,2.6-0.47,3.84l-61.6-42.75c-0.04,1.57-0.12,3.14-0.16,4.71L410.55,244 c-0.04,0.25-0.06,0.53-0.1,0.78c-0.14,0.91-0.29,1.8-0.48,2.68l-60.75-42.18c-0.07,1.67-0.13,3.35-0.2,5.02l60.01,41.64 c-0.08,0.17-0.09,0.31-0.2,0.46c-0.24,0.82-0.5,1.64-0.75,2.44l-59.19-41.09c-0.08,1.75-0.13,3.51-0.2,5.28l57.82,40.14 c-0.37,0.86-0.75,1.68-1.15,2.48l-56.82-39.44c0,0.71-0.05,1.42-0.08,2.14c-0.05,1.16-0.07,2.32-0.07,3.48l54.7,37.98 c-0.11,0.16-0.21,0.34-0.29,0.48c-0.34,0.56-0.72,1.03-1.08,1.54l-53.32-37.03c0.04,2.11,0.16,4.22,0.36,6.28l49.95,34.68 c-0.43,0.47-0.83,0.95-1.25,1.39c-0.07,0.08-0.16,0.16-0.25,0.25l-48.13-33.42c0.31,2.46,0.76,4.87,1.33,7.26l42.87,29.76 c-0.55,0.45-1.07,0.83-1.62,1.23l-40.5-28.1c0.85,3.04,1.94,6.02,3.28,8.91l31.67,22c0.92-0.23,1.79-0.55,2.65-0.85 c-0.36,0.22-0.73,0.43-1.11,0.64l-3.87,0.67l-27.79-19.3c0,0,6.84,14.04,1.22,15.74c-0.96-0.9-1.91-1.91-2.85-3.03 c-12.45-14.85-16.41-32.78-15.6-51.97c1.42-34.42,2.59-68.82,3.85-103.25c0.47-13.05,0.29-37.77,0.68-46.21 c4.59,3.35,23.29,16.2,28.38,19.44c-7.66-7.06-31.27-25.06-31.27-25.06s-1.06,6.94-1.28,9.57c-3.18,38.27-6.69,76.51-10.57,114.69 c-1.72,17.08-3.41,34.17-1.05,51.31c2.23,16.15,6.57,31.42,18.68,43.43c16.45,16.25,44.5,15.83,60.48,2.7 c10.98-8.99,16.04-20.66,17.53-34.28c0.27-2.61,0.53-5.2,0.75-7.81c1.74-20.38,1.92-40.85,3.37-61.22 c0.4-5.14,0.72-10.28,0.97-15.4c0.1-1.39,0.16-2.74,0.26-4.13c0.14-2.78,0.18-6.25,0.34-9.93c0.16-4.55,0.4-9.41,1.03-13.74 c1.36,0.14,44.24,32.1,44.24,32.1c0.23,0.26,0.48,0.51,0.69,0.78c1.61,1.81,2.98,3.47,4.23,5.02l-39.4-29.42 c-0.12,2.22-0.17,4.48-0.18,6.7l48.24,36c0.74,1.28,1.48,2.64,2.16,4.05l-50.4-37.65c-0.02,2.32,0,4.56,0.02,6.52l53.95,40.31 c0.13,0.49,0.29,0.94,0.44,1.42c0.19,0.67,0.35,1.39,0.54,2.06l-54.98-41.08c-0.03,1.25-0.07,2.48-0.09,3.7 c-0.03,0.81-0.01,1.61-0.06,2.4l56.69,42.34c0.21,1.14,0.37,2.3,0.52,3.44l-57.27-42.78c-0.05,1.92-0.12,3.85-0.19,5.75 l58.04,43.35c0.02,0.49,0.06,1,0.06,1.5c0.04,0.64,0.01,1.28,0.03,1.93l-58.25-43.51c0.01,0.18-0.02,0.35-0.04,0.52 c-0.05,1.66-0.1,3.29-0.13,4.93l58.34,43.58c-0.05,1.16-0.12,2.32-0.22,3.48l-58.21-43.48c-0.06,1.74-0.1,3.47-0.13,5.2 l57.76,43.14c-0.08,0.59-0.12,1.17-0.22,1.74c-0.11,0.6-0.27,1.18-0.39,1.77l-57.2-42.75c-0.03,1.65-0.03,3.28-0.05,4.95 l56.29,42.06c-0.31,1.17-0.63,2.36-1,3.51l-55.34-41.33c-0.02,1.54-0.04,3.1-0.06,4.64l54.08,40.41c-0.22,0.58-0.4,1.19-0.67,1.79 c-0.2,0.52-0.41,1.01-0.64,1.52c-0.04,0.07-0.07,0.14-0.11,0.21l-52.72-39.4c-0.01,1.45-0.03,2.89-0.07,4.3l51.24,38.3 c-0.59,1.18-1.22,2.35-1.88,3.48l-49.46-36.94c-0.02,1.33-0.05,2.63-0.1,3.95l47.85,35.74c-0.35,0.54-0.69,1.09-1.03,1.63 c-0.43,0.63-0.89,1.22-1.33,1.83l-45.67-34.1c0,0,0,0-0.01,0.03c0.01,0.02,0.01,0.07,0.02,0.1c0,0.05,0.01,0.13-0.01,0.19 l0.01,0.02c-0.01,0.08,0,0.16-0.01,0.24c0,0.61,0.02,1.68-0.04,3.1l43.92,32.81c-0.72,0.92-1.44,1.82-2.21,2.69 c-0.21,0.23-0.41,0.46-0.62,0.69l-41.4-30.91c-0.07,0.95-0.16,1.97-0.27,3.05c0,0.05,0,0.11,0,0.16l39.81,29.75 c-0.39,0.4-0.78,0.79-1.14,1.18c-0.73,0.72-1.48,1.42-2.23,2.1l-36.98-27.63c-0.15,0.94-0.31,1.89-0.48,2.78l35.55,26.58 c-0.68,0.56-1.31,1.16-2.02,1.71c-0.6,0.5-1.26,0.95-1.89,1.44l-32.65-24.37c-0.17,0.79-0.35,1.62-0.52,2.43l31.27,23.37 c-0.28,0.19-0.52,0.41-0.8,0.59c-1.22,0.85-2.46,1.68-3.71,2.47l-28.16-21.05c-0.19,0.7-0.38,1.4-0.61,2.08l26.89,20.11 c-0.39,0.24-0.77,0.48-1.14,0.7c-1.34,0.78-2.67,1.47-3.99,2.16l-23.61-17.62c-0.22,0.58-0.45,1.14-0.68,1.7l22.52,16.83 c-1.94,0.96-3.88,1.84-5.83,2.67l-19.1-14.26c-0.23,0.45-0.46,0.91-0.71,1.37l18.17,13.58c-2.01,0.81-4.01,1.53-5.98,2.19 c-0.22,0.08-0.42,0.12-0.62,0.19l-14.66-10.94c-0.26,0.34-0.51,0.69-0.77,1.03l13.9,10.41c-2.51,0.81-4.99,1.5-7.39,2.1 l-10.48-7.84c-0.25,0.25-0.53,0.49-0.79,0.72l9.95,7.44c-11.91,2.83-21.78,3.35-25.95,3.17c0.4,0.28,19.76,3.91,43.52-2.93 c2.31-0.66,4.63-1.43,6.98-2.3c2.47-0.9,4.88-1.9,7.38-3.05c1.9-0.86,3.83-1.84,5.74-2.86c2.35-1.26,4.68-2.64,7.02-4.19 c0.92-0.6,1.88-1.24,2.84-1.92c2.87-2.3,5.55-4.72,8.03-7.23c0.64-0.6,1.25-1.18,1.84-1.81l-0.08-0.07c1.04-1.08,2-2.2,2.94-3.31 l0.16,0.11c0.42-0.49,0.82-0.97,1.24-1.47c0.22-0.26,0.44-0.56,0.67-0.85l-0.17-0.13c0.87-1.1,1.7-2.21,2.48-3.33l0.16,0.11 c0.52-0.78,1.08-1.54,1.56-2.35c0.08-0.12,0.15-0.23,0.22-0.37l-0.16-0.11c0.71-1.1,1.38-2.22,2.05-3.35l0.08,0.06 c0.1-0.13,0.14-0.25,0.24-0.38c0.46-0.91,0.93-1.84,1.35-2.78l-0.01-0.02c6.22-12.1,9.25-25.64,9.4-40.34 c0.04-2.39-0.02-4.81-0.14-7.25c-0.1-2.19-0.29-4.34-0.59-6.43c-0.25-2.12-0.59-4.19-1.02-6.23c-1.22-5.94-3.06-11.62-5.54-17.01 C497.87,183.9,492.68,176.23,486.17,169.09z"></path> </g> </svg> 